HIERARCHY
ROOT Hips
{
	OFFSET 0.000000 0.000000 0.000000
	CHANNELS 6 Xposition Yposition Zposition Zrotation Yrotation Xrotation
	JOINT LHipJoint
	{
		OFFSET 0.000000 0.000000 0.000000
		CHANNELS 3 Zrotation Yrotation Xrotation
		JOINT LeftUpLeg
		{
			OFFSET 0 2. 0
			CHANNELS 3 Zrotation Yrotation Xrotation
			JOINT LeftLeg
			{
				OFFSET -1. 2. 0
				CHANNELS 3 Zrotation Yrotation Xrotation
				End Site
				{
					OFFSET 0.000000 0.000000 0.000000
				}
			}
		}
	}
}

MOTION
Frames: 31
Frame Time: 0.041667
0.000000 0.000000 0.000000 0.000000 0.000000 -98.776223 0.000000 0.000000 0.000000 0.000000 0.000000 0.000000 0.000000 0.000000 0.000000 
0.000000 0.000000 0.000000 0.000000 0.000000 -94.026806 0.000000 0.000000 0.000000 0.000000 6.169331 4.737762 0.000000 0.000000 0.000000 
0.000000 0.000000 0.000000 0.000000 0.000000 -89.277388 0.000000 0.000000 0.000000 0.000000 12.338662 9.475524 0.000000 0.000000 0.000000 
0.000000 0.000000 0.000000 0.000000 0.000000 -84.527971 0.000000 0.000000 0.000000 0.000000 18.507992 14.213286 0.000000 0.000000 0.000000 
0.000000 0.000000 0.000000 0.000000 0.000000 -79.778554 0.000000 0.000000 0.000000 0.000000 24.677323 18.951049 0.000000 0.000000 0.000000 
0.000000 0.000000 0.000000 0.000000 0.000000 -75.029137 0.000000 0.000000 0.000000 0.000000 30.846654 23.688811 0.000000 0.000000 0.000000 
0.000000 0.000000 0.000000 0.000000 0.000000 -70.279720 0.000000 0.000000 0.000000 0.000000 37.015985 28.426573 0.000000 0.000000 0.000000 
0.000000 0.000000 0.000000 0.000000 0.000000 -65.530303 0.000000 0.000000 0.000000 0.000000 43.185316 33.164335 0.000000 0.000000 0.000000 
0.000000 0.000000 0.000000 0.000000 0.000000 -60.780886 0.000000 0.000000 0.000000 0.000000 49.354646 37.902097 0.000000 0.000000 0.000000 
0.000000 0.000000 0.000000 0.000000 0.000000 -56.031469 0.000000 0.000000 0.000000 0.000000 55.523977 42.639859 0.000000 0.000000 0.000000 
0.000000 0.000000 0.000000 0.000000 0.000000 -51.282052 0.000000 0.000000 0.000000 0.000000 61.693308 47.377621 0.000000 0.000000 0.000000 
0.000000 0.000000 0.000000 0.000000 0.000000 -46.532635 0.000000 0.000000 0.000000 0.000000 67.862639 52.115383 0.000000 0.000000 0.000000 
0.000000 0.000000 0.000000 0.000000 0.000000 -41.783218 0.000000 0.000000 0.000000 0.000000 74.031970 56.853146 0.000000 0.000000 0.000000 
0.000000 0.000000 0.000000 0.000000 0.000000 -37.033800 0.000000 0.000000 0.000000 0.000000 80.201300 61.590908 0.000000 0.000000 0.000000 
0.000000 0.000000 0.000000 0.000000 0.000000 -32.284383 0.000000 0.000000 0.000000 0.000000 86.370631 66.328670 0.000000 0.000000 0.000000 
0.000000 0.000000 0.000000 0.000000 0.000000 -27.534966 0.000000 0.000000 0.000000 0.000000 92.539962 71.066432 0.000000 0.000000 0.000000 
0.000000 0.000000 0.000000 0.000000 0.000000 -22.785549 0.000000 0.000000 0.000000 0.000000 98.709293 75.804194 0.000000 0.000000 0.000000 
0.000000 0.000000 0.000000 0.000000 0.000000 -18.036132 0.000000 0.000000 0.000000 0.000000 104.878624 80.541956 0.000000 0.000000 0.000000 
0.000000 0.000000 0.000000 0.000000 0.000000 -13.286715 0.000000 0.000000 0.000000 0.000000 111.047954 85.279718 0.000000 0.000000 0.000000 
0.000000 0.000000 0.000000 0.000000 0.000000 -8.537298 0.000000 0.000000 0.000000 0.000000 117.217285 90.017481 0.000000 0.000000 0.000000 
0.000000 0.000000 0.000000 0.000000 0.000000 -3.787881 0.000000 0.000000 0.000000 0.000000 123.386616 94.755243 0.000000 0.000000 0.000000 
0.000000 0.000000 0.000000 0.000000 0.000000 0.961536 0.000000 0.000000 0.000000 0.000000 129.555947 99.493005 0.000000 0.000000 0.000000 
0.000000 0.000000 0.000000 0.000000 0.000000 5.710953 0.000000 0.000000 0.000000 0.000000 135.725278 104.230767 0.000000 0.000000 0.000000 
0.000000 0.000000 0.000000 0.000000 0.000000 10.460370 0.000000 0.000000 0.000000 0.000000 141.894608 108.968529 0.000000 0.000000 0.000000 
0.000000 0.000000 0.000000 0.000000 0.000000 15.209787 0.000000 0.000000 0.000000 0.000000 148.063939 113.706291 0.000000 0.000000 0.000000 
0.000000 0.000000 0.000000 0.000000 0.000000 19.959205 0.000000 0.000000 0.000000 0.000000 154.233270 118.444053 0.000000 0.000000 0.000000 
0.000000 0.000000 0.000000 0.000000 0.000000 24.708622 0.000000 0.000000 0.000000 0.000000 160.402601 123.181815 0.000000 0.000000 0.000000 
0.000000 0.000000 0.000000 0.000000 0.000000 29.458039 0.000000 0.000000 0.000000 0.000000 166.571932 127.919578 0.000000 0.000000 0.000000 
0.000000 0.000000 0.000000 0.000000 0.000000 34.207456 0.000000 0.000000 0.000000 0.000000 172.741262 132.657340 0.000000 0.000000 0.000000 
0.000000 0.000000 0.000000 0.000000 0.000000 38.956873 0.000000 0.000000 0.000000 0.000000 178.910593 137.395102 0.000000 0.000000 0.000000 
0.000000 0.000000 0.000000 0.000000 0.000000 43.706290 0.000000 0.000000 0.000000 0.000000 185.079924 142.132864 0.000000 0.000000 0.000000 
